<?xml version="1.0" ?><svg data-name="Слой 1" id="Слой_1" viewBox="0 0 96 96" xmlns="http://www.w3.org/2000/svg"><defs><style>
      .cls-1 {
        fill: #f27b1d;
      }

      .cls-2 {
        fill: #f27b1d;
      }

      .cls-3 {
        fill: none;
        stroke: #f27b1d;
        stroke-linecap: round;
        stroke-linejoin: round;
        stroke-width: 3px;
      }

      .cls-4 {
        fill: #fff;
      }
    </style></defs><title/><path class="cls-1" d="M92,48v.13A44,44,0,1,1,47.87,4H48c1.06,0,2.11,0,3.16.12a42.89,42.89,0,0,1,5.12.67,43.39,43.39,0,0,1,8.1,2.37A44.13,44.13,0,0,1,88.79,31.47a43.22,43.22,0,0,1,2.43,8.24h0a44,44,0,0,1,.67,5.17C92,45.92,92,47,92,48Z"/><path class="cls-2" d="M91,44.5v.12A39.53,39.53,0,1,1,51.38,5h.12c1,0,1.89,0,2.84.11a38.38,38.38,0,0,1,4.59.6,39.33,39.33,0,0,1,5.45,1.45A44.13,44.13,0,0,1,88.79,31.47a38.33,38.33,0,0,1,1.51,5.59h0a39.22,39.22,0,0,1,.6,4.64C91,42.63,91,43.57,91,44.5Z"/><g><path class="cls-4" d="M47.87,46.68a9.28,9.28,0,1,1,9.28-9.28A9.29,9.29,0,0,1,47.87,46.68Zm0-14.06a4.78,4.78,0,1,0,4.78,4.78A4.79,4.79,0,0,0,47.87,32.62Z"/><path class="cls-4" d="M60.53,49a2.62,2.62,0,0,0-3.59-.95,17.13,17.13,0,0,1-9,2.72,18.3,18.3,0,0,1-9-2.7,2.63,2.63,0,0,0-2.55,4.59,30,30,0,0,0,4.66,2.13,19.48,19.48,0,0,1,2.11.87l.86.43-6.27,7.58a2.59,2.59,0,0,0,0,3.45A2.5,2.5,0,0,0,41.58,67l6.29-7.6,6.3,7.6a2.5,2.5,0,0,0,3.46.37,2.63,2.63,0,0,0,.28-3.69L51.59,56l.27-.13a13.52,13.52,0,0,1,2-.72,26.2,26.2,0,0,0,5.77-2.57A2.63,2.63,0,0,0,60.8,51,2.57,2.57,0,0,0,60.53,49Z"/></g></svg>